<svg xmlns="http://www.w3.org/2000/svg" id="Capa_1" enable-background="new 0 0 512 512" height="512" viewBox="0 0 512 512" width="512"><g><g><path d="m457.05 362.5c-4.17 0-7.988-2.699-9.402-6.615-1.377-3.811-.246-8.23 2.808-10.902 3.279-2.868 8.171-3.26 11.87-.97 3.526 2.183 5.363 6.455 4.51 10.515-.961 4.579-5.098 7.972-9.786 7.972z" fill="#0575bc"/><path d="m490.192 97.483 15.179-40.21c1.16-3.072.737-6.518-1.13-9.219s-4.942-4.313-8.226-4.313h-53.295v-33.741c0-5.523-4.478-10-10-10h-94.314c-5.522 0-10 4.477-10 10v492c0 5.523 4.478 10 10 10h118.646c5.522 0 10-4.477 10-10v-104.11c0-5.523-4.478-10-10-10s-10 4.477-10 10v94.11h-98.646v-278.632h98.646v94.109c0 5.523 4.478 10 10 10s10-4.477 10-10v-104.109c0-5.523-4.478-10-10-10h-108.646v-85.884h24.515v33.742c0 5.523 4.478 10 10 10h113.095c3.283 0 6.358-1.612 8.226-4.313s2.29-6.146 1.13-9.219zm-141.786-77.483h74.314v67.483h-39.8c-.013 0-.025 0-.038 0h-34.476zm121.742 81.015 11.403 30.21h-88.631v-23.742h39.8c5.522 0 10-4.477 10-10v-33.741h38.831l-11.403 30.21c-.859 2.276-.859 4.787 0 7.063z" fill="#0575bc"/><path d="m295.841 512h-118.646c-5.522 0-10-4.477-10-10v-204.797c0-5.523 4.478-10 10-10h118.645c5.522 0 10 4.477 10 10v204.797c.001 5.523-4.477 10-9.999 10zm-108.646-20h98.645v-184.797h-98.645z" fill="#0575bc"/><path d="m134.63 512h-118.646c-5.522 0-10-4.477-10-10v-110.961c0-5.523 4.478-10 10-10h118.646c5.522 0 10 4.477 10 10v110.961c0 5.523-4.478 10-10 10zm-108.646-20h98.646v-90.961h-98.646z" fill="#0575bc"/></g></g></svg>