<svg xmlns="http://www.w3.org/2000/svg" id="Capa_1" enable-background="new 0 0 512 512" height="512" viewBox="0 0 512 512" width="512"><g><g><g><g><path d="m354.622 77.229c-2.563 0-5.124-.979-7.077-2.936-3.902-3.909-3.896-10.24.013-14.142l11.655-11.634c3.909-3.901 10.24-3.896 14.142.013s3.896 10.24-.013 14.142l-11.655 11.634c-1.953 1.948-4.509 2.923-7.065 2.923z" fill="#0575bc"/></g></g><g><g><path d="m157.378 77.229c-2.557 0-5.112-.974-7.064-2.922l-11.655-11.634c-3.909-3.902-3.915-10.233-.013-14.142 3.903-3.909 10.234-3.914 14.142-.013l11.655 11.634c3.909 3.902 3.915 10.233.013 14.142-1.954 1.956-4.516 2.935-7.078 2.935z" fill="#0575bc"/></g></g><g><g><path d="m256 36.453c-5.523 0-10-4.477-10-10v-16.453c0-5.523 4.477-10 10-10 5.522 0 10 4.477 10 10v16.453c0 5.523-4.478 10-10 10z" fill="#0575bc"/></g></g><path d="m256 225.065c-3.236 0-6.272-1.566-8.148-4.203l-24.663-34.664c-2.469-3.471-2.469-8.124 0-11.595l24.663-34.663c1.876-2.637 4.912-4.203 8.148-4.203s6.271 1.566 8.148 4.203l24.663 34.663c2.469 3.471 2.469 8.124 0 11.595l-24.663 34.664c-1.876 2.638-4.912 4.203-8.148 4.203zm-12.39-44.663 12.39 17.414 12.391-17.414-12.391-17.414z" fill="#0575bc"/><path d="m344.476 260.673h-176.952c-4.669 0-8.717-3.231-9.751-7.785l-30.671-135.042c-.892-3.925.657-8.001 3.929-10.345 3.271-2.343 7.63-2.496 11.059-.389 11.485 7.06 24.724 10.792 38.285 10.792 28.492 0 54.611-16.727 66.543-42.614 1.633-3.544 5.179-5.814 9.082-5.814s7.448 2.27 9.082 5.814c11.932 25.887 38.051 42.614 66.543 42.614 13.561 0 26.799-3.732 38.285-10.792 3.429-2.108 7.788-1.954 11.059.389 3.272 2.343 4.821 6.42 3.93 10.345l-30.671 135.042c-1.035 4.554-5.082 7.785-9.752 7.785zm-168.968-20h160.984l24.408-107.469c-9.386 3.099-19.265 4.7-29.275 4.7-30.195 0-58.296-14.754-75.625-38.71-17.33 23.956-45.43 38.71-75.625 38.71-10.012 0-19.889-1.6-29.276-4.7z" fill="#0575bc"/><g><path d="m395.04 468.3c-4.249 0-8.084-2.769-9.463-6.779-1.371-3.987.018-8.597 3.376-11.151 3.237-2.463 7.73-2.71 11.225-.636 3.646 2.163 5.513 6.555 4.628 10.686-.974 4.548-5.12 7.88-9.766 7.88z" fill="#0575bc"/></g><path d="m395.041 423.282c5.522 0 10-4.477 10-10v-81.651c0-20.688-16.831-37.518-37.519-37.518h-73.546c-1.743 0-3.457.456-4.97 1.322l-32.753 18.757-32.753-18.757c-1.513-.867-3.226-1.322-4.97-1.322h-74.054c-20.688 0-37.518 16.831-37.518 37.518v170.369c0 5.523 4.477 10 10 10h278.082c5.522 0 10-4.477 10-10s-4.478-10-10-10h-55.328v-177.887h27.81c9.66 0 17.519 7.858 17.519 17.518v81.651c0 5.523 4.478 10 10 10zm-138.787-82.266 15.263 15.263-15.263 15.263-15.263-15.263zm0 75.87 17.942 53.03-17.942 17.942-17.942-17.942zm38.878 52.504-27.414-81.026 20.619-20.62 4.938 4.406c1.85 1.649 4.225 2.539 6.658 2.539.637 0 1.278-.061 1.915-.185 3.068-.599 5.68-2.598 7.06-5.403l10.806-21.98v144.879h-39.316l12.334-12.334c2.688-2.69 3.619-6.673 2.4-10.276zm1.506-155.277h17.016l-16.887 34.349-23.498-20.967zm-80.767 0 23.369 13.382-23.567 21.028-17.205-34.41zm-88.912 17.518c0-9.66 7.858-17.518 17.518-17.518h27.81v177.887h-45.328zm65.328 14.842 11.344 22.688c1.393 2.786 4.004 4.763 7.063 5.349.626.12 1.256.179 1.882.179 2.434 0 4.81-.889 6.658-2.539l4.938-4.406 20.62 20.62-27.414 81.026c-1.219 3.604-.288 7.586 2.401 10.276l12.332 12.334h-39.825v-145.527z" fill="#0575bc"/></g></g></svg>