<svg xmlns="http://www.w3.org/2000/svg" xmlns:xlink="http://www.w3.org/1999/xlink" viewBox="0 0 48 48"><defs><style>.cls-1{fill:url(#linear-gradient);}.cls-2{fill:url(#linear-gradient-2);}.cls-3{fill:#0668cb;}.cls-4{fill:url(#linear-gradient-3);}.cls-5{fill:#4795ea;}.cls-6{fill:#8ad3fe;}.cls-7{fill:url(#linear-gradient-4);}.cls-8{fill:url(#linear-gradient-5);}.cls-9{fill:url(#linear-gradient-6);}.cls-10{fill:#b4cde1;}.cls-11{fill:url(#linear-gradient-7);}.cls-12{fill:url(#linear-gradient-8);}</style><linearGradient id="linear-gradient" x1="24" y1="26" x2="24" y2="15" gradientUnits="userSpaceOnUse"><stop offset="0" stop-color="#fe9661"/><stop offset="1" stop-color="#ffb369"/></linearGradient><linearGradient id="linear-gradient-2" x1="24" y1="47" x2="24" y2="35" gradientUnits="userSpaceOnUse"><stop offset="0" stop-color="#54a5ff"/><stop offset="1" stop-color="#8ad3fe"/></linearGradient><linearGradient id="linear-gradient-3" x1="24" y1="39" x2="24" y2="35" gradientUnits="userSpaceOnUse"><stop offset="0" stop-color="#d3e6f5"/><stop offset="1" stop-color="#f0f7fc"/></linearGradient><linearGradient id="linear-gradient-4" x1="24" y1="36" x2="24" y2="21" xlink:href="#linear-gradient-3"/><linearGradient id="linear-gradient-5" x1="17" y1="26.5" x2="13" y2="26.5" xlink:href="#linear-gradient-3"/><linearGradient id="linear-gradient-6" x1="-207" y1="26.5" x2="-211" y2="26.5" gradientTransform="matrix(-1, 0, 0, 1, -176, 0)" xlink:href="#linear-gradient-3"/><linearGradient id="linear-gradient-7" y1="11" y2="1.03" xlink:href="#linear-gradient"/><linearGradient id="linear-gradient-8" x1="24" y1="13" x2="24" y2="10" xlink:href="#linear-gradient-2"/></defs><title>Leader</title><g id="Leader"><path class="cls-1" d="M33,26V22a4,4,0,0,0-4-4l-.09-.26A4,4,0,0,0,25.12,15H20a5,5,0,0,0-5,5v6Z"/><path class="cls-2" d="M39,41.12V47H9V41.12a4,4,0,0,1,3-3.88L21,35h6l9,2.24A4,4,0,0,1,39,41.12Z"/><rect class="cls-3" x="20" y="36" width="8" height="11"/><path class="cls-4" d="M24,39a3,3,0,0,1-3-3V35h6v1A3,3,0,0,1,24,39Z"/><polygon class="cls-5" points="21 35 24 39 21 41 21 35"/><polygon class="cls-5" points="27 35 24 39 27 41 27 35"/><path class="cls-6" d="M19.67,35.45h0L17,39l2,2-3,3,3,3h2V35Z"/><polygon class="cls-6" points="32 44 29 47 27 47 27 35 28.33 35.45 31 39 29 41 32 44"/><path class="cls-7" d="M31,23v6a7,7,0,0,1-14,0V23h3.93c2.35,0,3.64-1,5.07-2A6.84,6.84,0,0,0,31,23Z"/><path class="cls-8" d="M15.5,29H17V24H15.5a2.5,2.5,0,0,0,0,5Z"/><path class="cls-9" d="M32.5,29H31V24h1.5a2.5,2.5,0,0,1,0,5Z"/><path class="cls-10" d="M22.29,32.71a1,1,0,0,1,1.42-1.42.41.41,0,0,0,.58,0,1,1,0,0,1,1.42,0C27,32.56,24.05,34.47,22.29,32.71Z"/><path class="cls-11" d="M32,3.14l-1,7A1,1,0,0,1,30,11H18a1,1,0,0,1-1-.86l-1-7A1,1,0,0,1,17.6,2.2l3.2,2.4,2.4-3.2a1,1,0,0,1,1.6,0l2.4,3.2,3.2-2.4A1,1,0,0,1,32,3.14Z"/><rect class="cls-12" x="16" y="10" width="16" height="3" rx="1"/></g></svg>