<svg xmlns="http://www.w3.org/2000/svg" id="Capa_1" enable-background="new 0 0 512 512" height="512" viewBox="0 0 512 512" width="512"><g><g><path d="m507.545 280.435-85.714-57.121c-3.069-2.046-7.015-2.236-10.265-.495-3.251 1.74-5.281 5.129-5.281 8.816v16.344h-50.298v-33.742c0-32.898-21.74-60.813-51.608-70.134 18.404-14.405 30.253-36.818 30.253-61.948 0-43.358-35.274-78.633-78.633-78.633s-78.633 35.274-78.633 78.633c0 25.129 11.849 47.543 30.253 61.948-29.868 9.321-51.608 37.236-51.608 70.134v33.742h-50.298v-16.344c0-3.688-2.029-7.076-5.281-8.816-3.251-1.741-7.196-1.551-10.265.495l-85.712 57.121c-2.783 1.854-4.455 4.977-4.455 8.321s1.672 6.467 4.455 8.321l85.714 57.121c1.673 1.115 3.606 1.679 5.546 1.679 1.618 0 3.24-.392 4.719-1.184 3.251-1.74 5.281-5.129 5.281-8.816v-16.343h109.508v73.23h-16.343c-3.688 0-7.076 2.029-8.816 5.281-1.74 3.251-1.55 7.196.495 10.265l57.121 85.714c1.854 2.783 4.977 4.455 8.321 4.455s6.467-1.671 8.321-4.455l57.121-85.714c2.045-3.068 2.235-7.014.495-10.265s-5.129-5.281-8.816-5.281h-16.343v-73.201h32.204c5.523 0 10-4.477 10-10s-4.477-10-10-10h-32.204v-41.584h119.508c5.523 0 10-4.477 10-10v-7.663l57.682 38.44-57.682 38.439v-7.662c0-5.523-4.477-10-10-10s-10 4.477-10 10v26.343c0 3.688 2.029 7.076 5.281 8.816 1.479.792 3.101 1.184 4.719 1.184 1.939 0 3.873-.563 5.546-1.679l85.714-57.121c2.783-1.854 4.455-4.977 4.455-8.321s-1.674-6.466-4.457-8.32zm-310.178-198.28c0-32.33 26.303-58.633 58.633-58.633s58.633 26.303 58.633 58.633-26.303 58.633-58.633 58.633-58.633-26.303-58.633-58.633zm-101.653 227.378c-5.523 0-10 4.477-10 10v7.662l-57.682-38.439 57.682-38.44v7.663c0 5.523 4.477 10 10 10h119.508v41.555h-119.508zm181.063 103.23c0 5.523 4.477 10 10 10h7.662l-38.439 57.682-38.439-57.682h28.23c5.523 0 10-4.477 10-10s-4.477-10-10-10h-10.568v-134.784h41.555v144.784zm-100.764-164.784v-33.742c0-29.472 23.977-53.449 53.448-53.449h53.078c29.472 0 53.448 23.977 53.448 53.449v33.742z" fill="#0575bc"/><g><path d="m374.01 329.56c-4.119 0-7.911-2.618-9.36-6.477-1.442-3.84-.344-8.34 2.763-11.039 3.204-2.784 7.904-3.249 11.587-1.137 3.573 2.049 5.539 6.225 4.869 10.287-.785 4.764-5.032 8.366-9.859 8.366z" fill="#0575bc"/></g></g></g></svg>