
            <svg xmlns="http://www.w3.org/2000/svg">
                <filter id="grayscale">
                    <feColorMatrix type="saturate" values="0"/>
                </filter>
                <g filter="url(#grayscale)">
                    <svg xmlns="http://www.w3.org/2000/svg" viewBox="153.97998596191405 172.72530181884767 267.0400085449219 229.54940979003905"> <svg xmlns="http://www.w3.org/2000/svg" xmlns:xlink="http://www.w3.org/1999/xlink" version="1.1" id="ssss_1" x="258.9939923706055" y="242.72530181884767" viewBox="1796.0198974609375 872.659912109375 1407.9400634765625 1254.69677734375" xml:space="preserve" height="50.79592831347159" width="57" preserveAspectRatio="xMinYMin" enable-background="new 0 0 5000 3000" style="overflow: visible;"><path d="M1830.38,1802.39c3.81,3.82,6.36,6.36,6.36,6.36h0l0,0c0,0,0,0,0-0.01c90.1-83.01,218.14-120.05,340.03-115.67   c124.9,7.27,247.6,50.15,358.4,115.32c58.07,32.84,120.72,59.11,186.78,73.14c206.28,50.67,401.67-83.67,481.94-269.59   c-146.18,261.49-396.88,321.31-647.9,161.05c-184.41-120.48-437.73-178.19-640.94-83.91c68.72-105.23,136.92-210.89,204.88-316.56   c61.94-96.35,179.31-279.86,252.28-395.13c60.22,108.23,121,216.29,182.13,324c0.03-0.04,0.12-0.16,0.16-0.21l97.07,199.83   l-72.03-234.03c35.55-48.55,99.03-135.24,128.22-175.1c57.41,81.92,115.25,163.56,173.61,244.84   c54.85,77.88,135.35,188.35,190.33,264.29c-112.75-181.52-232.9-370.78-348.74-550.1l-13.57-20.92l-15.79,20.09l-133.19,169.46   c-60.95-115.84-122.46-231.64-184.49-346.88c-82.49,124.95-223.86,342.1-305.52,467.9c-88.35,135.77-200.31,309.99-274.38,427.51   c0,0,0.64,0.64,1.75,1.75c2.22,2.22,6.36,6.36,11.13,11.13c4.77,4.77,10.17,10.17,14.94,14.94   C1826.25,1798.26,1828.47,1800.48,1830.38,1802.39z" style="fill: #284389; fill-opacity: 1;"></path><path d="M2731.99,2062.12c-59.7-14.74-117.28-40.32-171.27-72.71c-51.83-28.44-126.56-67.14-182.26-84.73   c-187.18-65.37-423.36-45.11-562.03,108.13c212.67-160.71,501.54-105.97,714.04,28.05c87.31,50.65,188.98,89.36,292.19,86.33   c174.13-0.45,322.86-134.61,381.3-290.73C3105.42,1999.12,2924.3,2117.04,2731.99,2062.12z" style="fill: #284389; fill-opacity: 1;"></path></svg> <svg y="301.14530181884766" viewBox="2.5900001525878906 4.130000114440918 127.04000854492188 31.129409790039062" x="223.97998596191405" height="31.129409790039062" width="127.04000854492188" style="overflow: visible;"><g fill="#284389" fill-opacity="1" style=""><path d="M8.54 28.19Q6.88 28.19 5.34 27.73Q3.81 27.26 2.59 26.43L2.59 26.43L2.59 22.56Q3.42 24.70 5.14 25.81Q6.85 26.91 8.70 26.91L8.70 26.91Q10.56 26.91 11.81 25.68Q13.06 24.45 13.06 22.62L13.06 22.62Q13.06 21.41 12.56 20.54Q12.06 19.68 10.98 18.93Q9.89 18.18 7.90 17.25L7.90 17.25Q5.12 15.97 3.86 14.58Q2.59 13.18 2.59 11.20L2.59 11.20Q2.59 9.50 3.41 8.18Q4.22 6.85 5.62 6.13Q7.01 5.41 8.67 5.41L8.67 5.41Q10.11 5.41 11.49 5.81Q12.86 6.21 14.05 6.94L14.05 6.94L14.05 10.40Q13.28 8.64 11.73 7.66Q10.18 6.69 8.58 6.69L8.58 6.69Q6.75 6.69 5.63 7.87Q4.51 9.06 4.51 10.69L4.51 10.69Q4.51 11.87 5.18 12.72Q5.86 13.57 6.83 14.14Q7.81 14.72 9.57 15.55L9.57 15.55Q11.36 16.42 12.51 17.15Q13.66 17.89 14.43 19.07Q15.20 20.26 15.20 21.95L15.20 21.95Q15.20 23.87 14.29 25.28Q13.38 26.69 11.86 27.44Q10.34 28.19 8.54 28.19L8.54 28.19ZM23.74 17.79Q24.45 16.96 25.47 16.43Q26.50 15.90 27.62 15.90L27.62 15.90Q29.34 15.90 30.38 17.01Q31.42 18.11 31.42 20.19L31.42 20.19L31.42 24.64Q31.42 25.98 31.71 26.69Q32 27.39 32.35 27.65Q32.70 27.90 32.70 27.81L32.70 27.81L28.10 27.81Q28.10 27.90 28.45 27.66Q28.80 27.42 29.09 26.72Q29.38 26.02 29.38 24.61L29.38 24.61L29.38 20.96Q29.38 19.87 29.09 19.23Q28.80 18.59 28.32 18.18L28.32 18.18Q27.58 17.57 26.56 17.57L26.56 17.57Q25.41 17.57 24.58 18.32Q23.74 19.07 23.74 20.42L23.74 20.42L23.74 24.61Q23.74 25.98 24.03 26.69Q24.32 27.39 24.69 27.65Q25.06 27.90 25.06 27.81L25.06 27.81L20.45 27.81Q20.45 27.90 20.80 27.66Q21.15 27.42 21.42 26.70Q21.70 25.98 21.70 24.61L21.70 24.61L21.70 8.13Q21.70 6.78 21.26 6.29Q20.83 5.79 20.29 5.79L20.29 5.79L20.10 5.79L23.74 4.13L23.74 17.79ZM47.14 28.19Q46.11 28.16 45.41 27.65Q44.70 27.14 44.61 26.46L44.61 26.46Q44.03 27.30 43.09 27.74Q42.14 28.19 41.22 28.19L41.22 28.19Q39.74 28.19 38.75 27.34Q37.76 26.50 37.76 25.12L37.76 25.12Q37.76 21.57 44.42 21.57L44.42 21.57L44.42 21.22Q44.42 19.46 43.90 18.62L43.90 18.62Q43.20 17.44 41.60 17.44L41.60 17.44Q40.35 17.44 39.54 18.18Q38.72 18.91 38.72 20.10L38.72 20.10Q38.53 19.78 38.42 19.52Q38.30 19.26 38.30 18.82L38.30 18.82Q38.30 17.66 39.39 16.78Q40.48 15.90 42.24 15.90L42.24 15.90Q44.74 15.90 45.79 17.57L45.79 17.57Q46.14 18.08 46.30 18.85Q46.46 19.62 46.46 20.86L46.46 20.86L46.46 24.67Q46.46 25.66 47.02 26.21Q47.58 26.75 48.61 26.75L48.61 26.75L49.02 26.75L47.14 28.19ZM44.42 22.53Q41.86 22.53 40.96 23.17Q40.06 23.81 40.06 24.90L40.06 24.90Q40.06 25.79 40.54 26.30Q41.02 26.82 41.82 26.82L41.82 26.82Q42.43 26.82 42.98 26.53Q43.52 26.24 43.90 25.73L43.90 25.73Q44.42 25.06 44.42 23.90L44.42 23.90L44.42 22.53ZM55.87 32.03Q55.87 33.44 56.16 34.14Q56.45 34.85 56.80 35.09Q57.15 35.33 57.15 35.23L57.15 35.23L52.54 35.23Q52.54 35.33 52.90 35.09Q53.25 34.85 53.54 34.13Q53.82 33.41 53.82 32.03L53.82 32.03L53.82 19.78Q53.82 18.43 53.39 17.94Q52.96 17.44 52.42 17.44L52.42 17.44L55.87 15.90L55.87 17.98Q56.26 17.34 57.26 16.62Q58.27 15.90 59.90 15.90L59.90 15.90Q61.31 15.90 62.43 16.61Q63.55 17.31 64.19 18.56Q64.83 19.81 64.83 21.34L64.83 21.34Q64.83 23.30 64.03 24.80Q63.23 26.30 61.95 27.20L61.95 27.20Q60.51 28.19 58.82 28.19L58.82 28.19Q57.70 28.19 56.96 27.89Q56.22 27.58 55.87 27.33L55.87 27.33L55.87 32.03ZM62.53 22.30Q62.53 20.29 61.58 18.80Q60.64 17.31 58.85 17.31L58.85 17.31Q58.18 17.31 57.47 17.68Q56.77 18.05 56.32 18.69Q55.87 19.33 55.87 20.13L55.87 20.13L55.87 23.90Q55.87 24.93 56.11 25.57Q56.35 26.21 56.86 26.53L56.86 26.53Q57.66 27.04 58.82 27.04L58.82 27.04Q60.42 27.04 61.47 25.74Q62.53 24.45 62.53 22.30L62.53 22.30ZM75.17 28.19Q73.44 28.19 72.19 27.34Q70.94 26.50 70.29 25.14Q69.63 23.78 69.63 22.24L69.63 22.24Q69.63 20.26 70.42 18.82Q71.20 17.38 72.45 16.64Q73.70 15.90 75.04 15.90L75.04 15.90Q76.96 15.90 78.35 17.30Q79.74 18.69 79.87 21.15L79.87 21.15L71.55 21.15Q71.55 22.69 72.13 23.86Q72.70 25.02 73.68 25.65Q74.66 26.27 75.81 26.27L75.81 26.27Q78.82 26.27 79.87 24.35L79.87 24.35Q79.58 26.08 78.30 27.14Q77.02 28.19 75.17 28.19L75.17 28.19ZM74.82 16.96Q73.57 16.96 72.67 17.84Q71.78 18.72 71.58 20.13L71.58 20.13L77.41 20.13Q77.41 18.66 76.62 17.81Q75.84 16.96 74.82 16.96L74.82 16.96ZM100.42 27.81Q100.42 27.90 100.80 27.66Q101.18 27.42 101.50 26.77Q101.82 26.11 101.82 24.83L101.82 24.83L101.82 17.57L89.79 17.57L89.79 24.83Q89.79 26.11 90.11 26.77Q90.43 27.42 90.82 27.65Q91.20 27.87 91.20 27.81L91.20 27.81L86.11 27.81Q86.11 27.90 86.50 27.66Q86.88 27.42 87.18 26.77Q87.49 26.11 87.49 24.83L87.49 24.83L87.49 8.77Q87.49 7.49 87.18 6.83Q86.88 6.18 86.50 5.95Q86.11 5.73 86.11 5.79L86.11 5.79L91.20 5.79Q91.20 5.73 90.82 5.95Q90.43 6.18 90.11 6.83Q89.79 7.49 89.79 8.77L89.79 8.77L89.79 16.16L101.82 16.16L101.82 8.77Q101.82 7.49 101.50 6.83Q101.18 6.18 100.80 5.95Q100.42 5.73 100.42 5.79L100.42 5.79L105.50 5.79Q105.50 5.70 105.12 5.94Q104.74 6.18 104.43 6.83Q104.13 7.49 104.13 8.77L104.13 8.77L104.13 24.83Q104.13 26.11 104.45 26.77Q104.77 27.42 105.15 27.65Q105.54 27.87 105.54 27.81L105.54 27.81L100.42 27.81ZM119.10 16.74Q120.58 16.74 121.66 16.05Q122.75 15.36 123.31 14.26Q123.87 13.15 123.87 11.94L123.87 11.94Q123.87 10.69 123.34 9.58Q122.82 8.48 121.73 7.78Q120.64 7.07 119.07 7.07L119.07 7.07L116.35 7.07L116.35 24.86Q116.35 26.14 116.67 26.80Q116.99 27.46 117.38 27.66Q117.76 27.87 117.76 27.81L117.76 27.81L112.67 27.81Q112.67 27.87 113.06 27.65Q113.44 27.42 113.74 26.78Q114.05 26.14 114.05 24.86L114.05 24.86L114.05 8.86Q114.05 7.55 113.74 6.86Q113.44 6.18 113.06 5.94Q112.67 5.70 112.67 5.79L112.67 5.79L119.01 5.79Q121.50 5.79 123.12 6.61Q124.74 7.42 125.46 8.72Q126.18 10.02 126.18 11.55L126.18 11.55Q126.18 12.83 125.57 14.06Q124.96 15.30 123.82 16.21Q122.69 17.12 121.18 17.47L121.18 17.47L120.67 17.57L126.30 24.74Q127.42 25.98 128.16 26.66Q128.90 27.33 129.23 27.55Q129.57 27.78 129.63 27.81L129.63 27.81L125.89 27.81L117.18 16.74L119.10 16.74Z" transform="translate(0, 0)"></path></g></svg></svg>
                </g>
            </svg>
        