<svg xmlns="http://www.w3.org/2000/svg" xmlns:xlink="http://www.w3.org/1999/xlink" viewBox="0 0 685.6 254.21"><defs><style>.cls-1{fill:none;}.cls-2{fill:#008496;}.cls-3{clip-path:url(#clip-path);}.cls-4{fill:#edb400;}.cls-5{opacity:0.82;}.cls-6{clip-path:url(#clip-path-3);}.cls-7{fill:url(#linear-gradient);}</style><clipPath id="clip-path" transform="translate(-83.92 -171.29)"><rect class="cls-1" x="495.9" y="171.29" width="273.61" height="239.24"/></clipPath><clipPath id="clip-path-3" transform="translate(-83.92 -171.29)"><rect class="cls-1" x="486.33" y="141.2" width="300.27" height="290.24"/></clipPath><linearGradient id="linear-gradient" x1="731.27" y1="224.82" x2="537.94" y2="336.44" gradientUnits="userSpaceOnUse"><stop offset="0" stop-color="#59c9ac"/><stop offset="0.28" stop-color="#27a2a0"/><stop offset="0.52" stop-color="#008496"/></linearGradient></defs><g id="Layer_2" data-name="Layer 2"><path class="cls-2" d="M488.5,356.56c-14.48,0-26.89-7.86-26.89-21.31v-.41c0-12.83,11.38-21.52,31.23-21.52a109.73,109.73,0,0,1,31.24,4.56v9.92c-.3,18.63-15.93,28.76-35.58,28.76m-3.1,12.82c19.19.21,31.28-3.84,41.15-12.58,7.49-6.63,12-13.79,12.66-26.8.67-13.6.35-20.82.39-28.26.06-12.59-3.73-24-11.18-31.44-7.65-7.66-19.44-11.79-34.54-11.79-15.72,0-27.1,3.72-38.89,9.1l4.76,13c9.93-4.55,19.86-7.65,32.47-7.65,20.07,0,31.65,9.93,31.65,29v3.31a112,112,0,0,0-32.68-4.55c-27.1,0-45.72,12-45.72,35v.41c0,21.93,19.86,33.09,39.93,33.3m-105.92.21c20.07,0,32.89-8.69,43.65-20.68L413,339.39c-8.49,9.1-19,15.93-32.69,15.93-22.34,0-39.3-18.41-39.3-41.58v-.42c0-23,16.55-41.37,38.27-41.37,14.48,0,24,7.24,32.47,16.14l10.55-11.17c-9.93-10.55-22.54-19-42.82-19-31.23,0-54.82,25.65-54.82,55.85v.41c0,30,23.59,55.44,54.82,55.44m-127.62-1.65h14.06l46.55-107.78H295.3l-36.2,88.75-36-88.75H205.52Zm-114-12.83c-19.86,0-38.68-16.55-38.68-41.37v-.42c0-24.41,18.82-41.16,38.68-41.16,20.27,0,37.65,16.13,37.65,41.37V314c0,25.85-17,41.16-37.65,41.16m.69,14.27c28.34,0,53.3-20.68,53.3-55.64v-.42c0-35.16-25.44-55.43-51.1-55.43a49.42,49.42,0,0,0-41,20.77v-83.6H83.92v118c0,38,27.76,56.3,54.68,56.3" transform="translate(-83.92 -171.29)"/><g class="cls-3"><g class="cls-3"><path class="cls-4" d="M495.9,171.62s144-7.86,222.28,53.27c103.17,80.57,18.94,185.64,18.94,185.64s-4.83-93.27-58.44-159.64c-65.13-80.63-182.78-79.27-182.78-79.27" transform="translate(-83.92 -171.29)"/><g class="cls-5"><g class="cls-6"><path class="cls-7" d="M495.9,171.62s144-7.86,222.28,53.27c103.17,80.57,18.94,185.64,18.94,185.64s37.2-64.7,13.43-88.29C730.34,302.17,682.27,319,647.33,333c-42.72,17.07-86.05,43.88-86.05,43.88s80.5-56.11,55.68-132.08c-21.57-66-121.06-73.16-121.06-73.16" transform="translate(-83.92 -171.29)"/></g></g></g></g></g><g id="Layer_3" data-name="Layer 3"><path class="cls-2" d="M519.4,414.61a5.91,5.91,0,0,1,5.8-5.12,5.32,5.32,0,0,1,5.33,5.12Zm14,2.13c.2-6.37-4.09-9.53-8.29-9.53a8.73,8.73,0,0,0-8.69,9,9.19,9.19,0,0,0,9.61,9.24,11.46,11.46,0,0,0,6.93-2.2l-1.28-1.92a9.75,9.75,0,0,1-5.33,1.76c-4.36,0-7.08-3-7.08-6.36ZM504,425h2.81V412.85a4.3,4.3,0,0,1,3.84-3,4.45,4.45,0,0,1,2.44.56l.2-.08c.2-.8.4-1.6.56-2.44a5.06,5.06,0,0,0-2.68-.68,5.44,5.44,0,0,0-4.72,3.12l-.81-2.64H504Zm-7.6,0h1.72V407.73h-2.8v10a5.44,5.44,0,0,1-5.41,5.36,5.1,5.1,0,0,1-5.24-5.36v-10h-2.81v10.33a7.15,7.15,0,0,0,7.45,7.44,7.51,7.51,0,0,0,6.29-3.12ZM477.2,410v-2.28h-5.44v-6.45h-.24c-.89.2-1.69.36-2.53.52v5.93h-3.08l-.32,2V410H469v9.41c0,3.52,1.84,5.8,5.41,5.8a14.22,14.22,0,0,0,2.92-.36l-.36-2.24a7.26,7.26,0,0,1-1.84.24,3.08,3.08,0,0,1-3.36-3.44V410Zm-17.7,15h1.73V407.73h-2.81v10a5.43,5.43,0,0,1-5.4,5.36,5.11,5.11,0,0,1-5.25-5.36v-10H445v10.33a7.14,7.14,0,0,0,7.45,7.44,7.48,7.48,0,0,0,6.28-3.12ZM435,403.64c0-3.8,2.53-5.88,7-4.44l.48-2.2c-6.08-2-10.25,1-10.25,6.68v4.05h-2.56l-.28,2V410h2.84v15H435V410h6.29v-2.28H435ZM406.54,425h2.8V412.85a4.3,4.3,0,0,1,3.85-3,4.45,4.45,0,0,1,2.44.56l.2-.08c.2-.8.4-1.6.56-2.44a5.06,5.06,0,0,0-2.68-.68,5.44,5.44,0,0,0-4.73,3.12l-.8-2.64h-1.64Zm-18.46-10.37a5.92,5.92,0,0,1,5.81-5.12,5.31,5.31,0,0,1,5.32,5.12Zm14,2.13c.2-6.37-4.09-9.53-8.29-9.53a8.73,8.73,0,0,0-8.69,9,9.19,9.19,0,0,0,9.61,9.24,11.48,11.48,0,0,0,6.93-2.2l-1.28-1.92a9.78,9.78,0,0,1-5.33,1.76c-4.36,0-7.09-3-7.09-6.36ZM381.8,410v-2.28h-5.45v-6.45h-.24c-.88.2-1.68.36-2.52.52v5.93h-3.08l-.32,2V410h3.4v9.41c0,3.52,1.84,5.8,5.41,5.8a14.22,14.22,0,0,0,2.92-.36l-.36-2.24a7.26,7.26,0,0,1-1.84.24,3.09,3.09,0,0,1-3.37-3.44V410Zm-14.57,0v-2.28h-5.45v-6.45h-.24c-.88.2-1.68.36-2.52.52v5.93h-3.08l-.32,2V410H359v9.41c0,3.52,1.84,5.8,5.4,5.8a14.41,14.41,0,0,0,2.93-.36l-.36-2.24a7.4,7.4,0,0,1-1.85.24,3.08,3.08,0,0,1-3.36-3.44V410Zm-27.71,4.6a5.91,5.91,0,0,1,5.81-5.12,5.31,5.31,0,0,1,5.32,5.12Zm14,2.13c.2-6.37-4.08-9.53-8.28-9.53a8.72,8.72,0,0,0-8.69,9c0,5,3.84,9.24,9.61,9.24a11.43,11.43,0,0,0,6.92-2.2l-1.28-1.92a9.72,9.72,0,0,1-5.32,1.76c-4.37,0-7.09-3-7.09-6.36Zm-29.1,6.4c-3.24,0-6.25-2.68-6.25-6.84s2.85-6.73,6.13-6.73,6,2.6,6,6.73-2.64,6.84-5.92,6.84m.28,2.36c5,0,8.53-3.8,8.53-9.2s-3.61-9.09-8.33-9.09a7.76,7.76,0,0,0-6.85,3.8V396.4h-.28l-2.44.48V425H317l.84-3.56a7.69,7.69,0,0,0,6.89,4.08m-27.42-6.76c-.16,2.52-3.21,4.68-6,4.68-2.48,0-4.64-1.36-4.64-3.84,0-2.32,2.08-3.76,4.68-3.76a8.69,8.69,0,0,1,5.93,2.6Zm2.72-3.57c0-4.76-3.08-7.88-7.89-8a15.47,15.47,0,0,0-6,1.24l.76,2.12a12.18,12.18,0,0,1,5-1,5.26,5.26,0,0,1,5.37,5.52v1.17a9.81,9.81,0,0,0-6.37-2.41c-4.12,0-7.09,2.25-7.09,5.89,0,3.24,2.65,5.8,6.81,5.8,3.4,0,5.68-1.32,7-3.24l.72,2.72H300Zm-45-7.44h-1.6V425h2.76V414.93a5.49,5.49,0,0,1,5.45-5.36,5.16,5.16,0,0,1,5.32,5.36V425h2.76V414.65a7.23,7.23,0,0,0-7.48-7.48,7.68,7.68,0,0,0-6.29,3.16Zm-11.93-6.05a2.26,2.26,0,0,0,4.52,0,2.26,2.26,0,1,0-4.52,0M244,425h2.8V407.73H244Zm-25.66-1.84c-3.2,0-6.05-2.56-6.05-6.84,0-4.09,2.73-6.73,6-6.73s6.2,2.44,6.2,6.73c0,4-2.92,6.84-6.12,6.84m-.44,2.36a7.46,7.46,0,0,0,6.84-4.12l.93,3.6h1.64V396.4H227l-2.49.48v14.25c-.92-2.16-3.76-3.92-6.56-3.92-5,0-8.53,3.68-8.53,9.09s3.56,9.2,8.45,9.2m-25.66-10.89a5.91,5.91,0,0,1,5.8-5.12,5.32,5.32,0,0,1,5.33,5.12Zm14,2.13c.2-6.37-4.08-9.53-8.29-9.53a8.73,8.73,0,0,0-8.69,9,9.19,9.19,0,0,0,9.61,9.24,11.46,11.46,0,0,0,6.93-2.2l-1.28-1.92a9.75,9.75,0,0,1-5.33,1.76c-4.36,0-7.08-3-7.08-6.36ZM186,410v-2.28h-5.44v-6.45h-.24c-.88.2-1.69.36-2.53.52v5.93h-3.08l-.32,2V410h3.4v9.41c0,3.52,1.85,5.8,5.41,5.8a14.22,14.22,0,0,0,2.92-.36l-.36-2.24a7.26,7.26,0,0,1-1.84.24,3.08,3.08,0,0,1-3.36-3.44V410Zm-15.37-1.48a16.06,16.06,0,0,0-6.17-1.32c-3.48,0-6.84,1.68-6.84,5,0,3,2.56,4.41,6.44,5.29,2.68.6,4.85,1.28,4.85,3.08,0,2.16-3,2.68-4.69,2.68a10.64,10.64,0,0,1-5.84-1.68l-1,2.28a12.59,12.59,0,0,0,6.76,1.68c3.77,0,7.33-1.48,7.33-5,0-3.32-3.16-4.8-6.85-5.57-2-.48-4.36-1-4.36-2.84,0-2,2.48-2.64,4.2-2.64a11.72,11.72,0,0,1,5.33,1.36ZM140,414.61a5.91,5.91,0,0,1,5.81-5.12,5.31,5.31,0,0,1,5.32,5.12Zm14,2.13c.2-6.37-4.08-9.53-8.28-9.53a8.72,8.72,0,0,0-8.69,9c0,5,3.84,9.24,9.61,9.24a11.43,11.43,0,0,0,6.92-2.2l-1.28-1.92A9.72,9.72,0,0,1,147,423.1c-4.37,0-7.09-3-7.09-6.36Zm-21.74-9-6.44,12.77-6.37-12.77h-3l8.85,17.61h1l8.89-17.61Zm-33.3,0H97.39V425h2.77V414.93a5.49,5.49,0,0,1,5.44-5.36,5.17,5.17,0,0,1,5.33,5.36V425h2.76V414.65a7.23,7.23,0,0,0-7.49-7.48,7.67,7.67,0,0,0-6.28,3.16ZM87.55,425h3v-28.1h-3Z" transform="translate(-83.92 -171.29)"/></g></svg>